<?xml version="1.0" standalone="no"?>
<!DOCTYPE svg PUBLIC "-//W3C//DTD SVG 20010904//EN"
 "http://www.w3.org/TR/2001/REC-SVG-20010904/DTD/svg10.dtd">
<svg version="1.0" xmlns="http://www.w3.org/2000/svg"
 width="1024.000000pt" height="334.000000pt" viewBox="0 0 1024.000000 334.000000"
 preserveAspectRatio="xMidYMid meet">

<g transform="translate(0.000000,334.000000) scale(0.100000,-0.100000)"
fill="#000000" stroke="none">
<path d="M529 2859 c-47 -17 -54 -47 -51 -216 1 -84 7 -164 12 -177 12 -33
277 -299 319 -321 19 -10 68 -19 113 -22 43 -3 78 -9 78 -12 0 -3 -28 -42 -62
-86 -194 -251 -381 -508 -355 -486 11 9 17 10 17 2 0 -20 24 -7 53 28 18 22
24 37 17 41 -10 6 77 125 343 469 34 44 57 83 57 98 0 23 49 84 76 94 12 4
134 152 134 162 0 3 -167 7 -371 9 l-371 3 -19 24 c-16 20 -19 40 -19 150 0
139 11 195 40 211 13 7 209 10 584 8 527 -3 567 -4 583 -21 16 -16 18 -43 21
-244 l3 -225 -26 -40 c-31 -46 -28 -57 9 -33 26 17 26 17 81 -38 30 -30 55
-52 55 -49 0 4 8 -7 16 -25 15 -30 15 -34 -4 -65 -12 -18 -31 -43 -44 -56
l-24 -22 -83 80 c-78 76 -85 80 -105 67 -11 -8 -74 -84 -139 -168 -65 -85
-156 -203 -203 -264 -46 -60 -97 -117 -112 -126 -16 -9 -38 -30 -50 -47 l-22
-30 47 14 c26 8 50 19 54 25 4 8 20 -1 45 -24 22 -19 50 -45 63 -56 13 -12 20
-21 16 -21 -4 0 2 -9 15 -20 l22 -19 -32 -41 c-18 -23 -40 -40 -52 -40 -12 0
-47 27 -84 65 l-63 64 -43 -35 c-53 -44 -107 -105 -108 -121 0 -10 80 -13 368
-13 345 0 370 -1 385 -18 14 -16 17 -43 17 -171 0 -86 -5 -161 -10 -172 -10
-18 -28 -19 -600 -19 l-589 0 -15 22 c-13 19 -16 61 -17 243 0 151 -4 211 -10
190 -5 -16 -10 -121 -10 -233 0 -187 1 -205 20 -235 39 -61 262 -276 314 -302
l51 -25 543 0 c601 0 596 0 630 62 15 27 18 57 18 168 0 171 -5 180 -171 346
-155 156 -169 164 -259 164 -38 0 -76 4 -83 8 -9 6 53 95 224 318 130 170 248
333 261 362 22 47 26 71 32 227 8 209 14 223 69 155 60 -73 132 -146 132 -133
0 6 -83 123 -185 258 -102 136 -185 256 -185 266 0 10 11 26 25 35 21 14 52
15 212 12 132 -3 196 -8 216 -18 24 -12 201 -227 374 -455 71 -95 88 -111 98
-95 5 8 26 -7 61 -41 29 -29 51 -56 49 -59 -3 -4 -16 -5 -31 -2 -23 4 -25 3
-16 -15 19 -35 38 -45 52 -28 16 19 22 83 9 91 -5 3 -40 47 -78 97 -136 183
-239 300 -395 446 -118 110 -126 113 -367 109 -197 -3 -201 -3 -220 -27 -23
-28 -25 -79 -3 -109 28 -41 1 -23 -71 48 -40 38 -84 74 -99 80 -35 13 -1140
12 -1177 -1z"/>
<path d="M3480 2848 c-50 -26 -66 -44 -301 -355 -89 -117 -159 -217 -155 -221
8 -8 3 -13 141 164 180 234 295 373 318 386 16 9 79 13 225 13 187 0 205 -2
217 -19 10 -12 11 -25 5 -42 -5 -13 -76 -112 -157 -219 -227 -301 -239 -319
-179 -280 24 16 27 16 53 -7 16 -12 48 -44 72 -70 51 -56 51 -73 -7 -138 l-38
-43 -79 77 c-55 54 -84 76 -99 74 -14 -2 -82 -84 -203 -242 -163 -213 -183
-243 -183 -277 0 -21 -4 -41 -10 -44 -13 -8 -13 -52 1 -60 5 -4 19 1 30 11 19
17 21 16 61 -22 92 -88 97 -96 98 -149 l0 -49 -74 73 c-40 40 -76 69 -79 65
-9 -16 -17 -118 -22 -312 -3 -106 -10 -202 -15 -213 -6 -10 -21 -19 -33 -19
-143 -3 -331 0 -335 5 -13 13 -21 121 -21 300 -1 127 -5 185 -11 175 -6 -9
-10 -112 -10 -240 0 -207 2 -227 20 -255 43 -65 263 -275 316 -301 50 -24 59
-25 192 -22 124 3 144 5 169 24 46 34 51 77 52 425 l1 317 28 51 c23 44 367
503 539 720 29 36 53 72 53 79 0 8 6 28 14 45 11 24 15 94 18 282 3 167 8 257
16 272 7 13 26 25 45 28 17 3 348 5 734 3 658 -3 703 -4 720 -21 16 -16 18
-42 21 -235 3 -216 3 -217 -22 -264 -25 -47 -22 -57 13 -38 15 8 31 -4 91 -63
l72 -72 -22 -42 c-12 -23 -33 -52 -46 -64 l-25 -23 -83 83 c-73 73 -86 81
-102 71 -25 -16 -304 -385 -304 -403 0 -7 20 -40 45 -71 25 -32 45 -61 46 -65
3 -28 10 -45 30 -72 19 -27 23 -29 31 -15 8 14 13 15 24 5 10 -8 14 -8 14 0 0
6 34 -24 75 -66 41 -43 75 -81 75 -85 0 -4 -18 12 -41 35 -26 26 -38 35 -34
22 4 -11 8 -28 10 -38 5 -21 18 -41 165 -237 156 -207 154 -204 140 -229 -10
-20 -19 -21 -231 -21 l-221 0 -26 28 c-15 16 -54 64 -87 106 -153 197 -275
348 -275 340 0 -5 -4 -2 -10 6 -5 8 -12 12 -15 8 -5 -5 211 -300 322 -438 62
-77 279 -295 333 -335 64 -47 105 -55 275 -55 170 0 202 6 252 50 42 37 58 36
132 -14 28 -19 70 -38 94 -41 23 -3 290 -5 592 -3 625 3 584 -2 630 88 35 69
61 68 143 -3 34 -30 79 -59 101 -65 48 -15 342 -16 394 -1 58 16 100 60 276
289 89 115 170 214 181 220 10 5 25 7 34 4 8 -3 49 -50 91 -104 91 -118 344
-367 400 -395 34 -17 65 -20 216 -23 194 -4 239 5 260 52 25 53 4 90 -187 336
-388 499 -422 546 -430 587 -5 28 -2 46 12 70 17 29 191 259 452 597 51 67
107 141 124 164 37 54 46 107 24 150 -20 39 -251 273 -297 301 -31 19 -49 21
-224 21 -270 -1 -230 26 -494 -323 -90 -120 -169 -221 -176 -227 -8 -6 -33 19
-84 85 -141 182 -370 412 -445 446 -35 16 -68 19 -237 19 -184 0 -198 -1 -223
-21 -31 -25 -36 -81 -9 -119 l17 -24 -29 21 c-17 12 -52 44 -80 72 -29 30 -64
55 -85 61 -21 6 -278 10 -645 10 -561 0 -613 -1 -645 -18 -50 -25 -60 -52 -60
-168 0 -55 -3 -103 -6 -107 -4 -3 -67 55 -141 129 -74 75 -150 142 -169 150
-47 19 -1445 21 -1484 1 -23 -12 -38 -33 -58 -87 l-9 -24 -54 51 c-30 29 -67
57 -83 62 -15 6 -106 11 -210 11 -169 0 -185 -2 -226 -22z m4432 -27 c26 -13
140 -152 323 -391 48 -63 98 -127 112 -141 26 -28 68 -35 91 -16 8 6 64 76
125 156 189 248 297 380 320 393 16 9 81 13 224 13 178 0 204 -2 219 -17 15
-14 16 -22 6 -43 -11 -23 -223 -310 -324 -438 -46 -59 -51 -86 -12 -61 l26 17
70 -70 c82 -82 83 -90 19 -163 l-39 -45 -83 82 c-77 76 -85 82 -104 69 -30
-20 -226 -278 -221 -292 2 -6 45 -66 96 -133 50 -66 89 -125 85 -130 -3 -6 9
-26 26 -45 27 -32 32 -34 46 -21 19 19 16 20 58 -20 20 -19 34 -39 30 -45 -3
-5 4 -24 16 -42 13 -17 17 -28 10 -24 -25 16 10 -35 151 -222 159 -211 168
-226 146 -248 -13 -13 -49 -15 -228 -14 -157 0 -217 4 -231 14 -18 12 -156
185 -246 306 -64 88 -168 197 -183 192 -8 -3 -11 1 -8 10 5 11 -3 15 -32 16
-33 2 -42 -3 -57 -28 -9 -17 -23 -30 -29 -30 -7 0 -56 -55 -109 -122 -227
-289 -268 -339 -284 -348 -20 -10 -434 -16 -450 -5 -28 17 -4 61 134 244 80
106 150 201 156 213 26 48 -23 -3 -121 -127 -57 -71 -117 -145 -133 -163 l-31
-32 -120 119 c-67 65 -132 124 -146 132 -18 10 -83 16 -235 20 l-210 5 253 2
c360 3 356 0 350 251 -3 130 -5 150 -25 182 -26 41 -270 286 -304 305 -16 9
-71 14 -169 15 -104 1 -132 4 -100 9 25 4 150 8 277 8 128 1 249 6 270 11 57
16 99 56 203 195 52 69 102 128 110 131 15 6 32 -10 139 -134 29 -34 56 -60
59 -57 7 7 -32 62 -215 306 -84 111 -153 210 -153 221 0 10 10 25 23 34 19 14
49 16 212 13 132 -3 198 -8 217 -17z m-634 -7 c12 -8 22 -21 22 -29 0 -21
-217 -307 -248 -327 -24 -16 -60 -18 -364 -18 l-338 0 0 -90 c0 -86 8 -109 28
-74 7 13 22 3 80 -57 86 -87 95 -119 34 -119 -30 0 -45 7 -72 35 -51 51 -70
47 -70 -15 l0 -49 336 -3 c319 -3 336 -4 350 -22 21 -30 20 -313 -2 -344 -15
-22 -15 -22 -345 -22 l-329 0 -11 -27 c-6 -16 -13 -46 -16 -68 -5 -36 -3 -41
16 -41 12 0 24 8 27 18 5 15 12 11 52 -26 26 -25 58 -54 71 -65 19 -16 25 -34
29 -76 2 -30 2 -55 -1 -55 -3 0 -37 32 -76 72 l-71 72 -6 -32 c-4 -18 -11 -35
-15 -38 -5 -3 -9 -27 -9 -55 l0 -49 98 0 c53 0 243 -1 420 -3 l324 -2 20 -25
c19 -23 20 -35 16 -177 -3 -103 -9 -157 -18 -167 -11 -14 -83 -16 -621 -16
l-608 0 -15 22 c-13 19 -16 59 -17 233 0 115 -4 219 -8 230 -13 33 -21 -63
-21 -251 0 -109 -4 -174 -10 -174 -5 0 -24 19 -40 42 -17 24 -42 57 -54 73
-28 36 -75 96 -175 228 -63 83 -75 105 -79 146 -4 47 -4 48 109 197 62 82 129
169 149 194 20 25 48 62 62 83 35 52 38 39 39 -151 1 -191 8 -245 32 -250 14
-3 17 4 17 32 0 20 -4 36 -10 36 -6 0 -10 100 -10 279 0 239 -2 280 -15 285
-19 7 -19 65 0 90 12 16 15 66 15 273 0 240 1 254 20 273 20 20 33 20 653 20
556 0 635 -2 655 -16z m1765 -1359 c23 -32 17 -32 -13 0 -13 14 -19 25 -14 25
5 0 17 -12 27 -25z"/>
<path d="M7890 2172 c0 -10 67 -107 115 -167 17 -22 46 -61 65 -87 l33 -47
-110 -148 c-121 -163 -132 -180 -115 -169 8 4 12 0 12 -11 1 -14 8 -10 30 17
17 19 30 41 30 50 0 8 43 72 96 142 l95 128 -105 137 c-95 124 -146 178 -146
155z"/>
<path d="M8011 1611 c-12 -7 -21 -17 -21 -22 0 -5 -8 -17 -17 -27 -10 -11 -36
-43 -58 -72 -22 -29 -55 -70 -72 -92 -18 -22 -33 -45 -33 -51 0 -9 48 -12 172
-11 l172 2 35 39 c20 22 60 71 89 109 90 118 105 134 122 134 17 0 30 -15 145
-165 38 -49 78 -97 89 -105 17 -11 53 -14 181 -12 88 1 164 2 169 2 8 0 -11
34 -39 68 -8 9 -41 53 -74 98 -97 129 -45 116 -470 118 -298 1 -374 -2 -390
-13z"/>
<path d="M8382 1560 c-16 -26 -17 -25 18 -25 33 -1 35 2 16 28 -17 21 -18 21
-34 -3z"/>
<path d="M7636 1125 c-68 -76 -116 -138 -116 -148 0 -4 78 -7 174 -7 169 0
175 1 203 24 41 35 126 163 117 177 -4 8 -3 9 4 5 7 -4 12 -1 12 6 0 10 -36
13 -166 13 l-166 0 -62 -70z"/>
<path d="M8775 1183 c2 -7 0 -13 -6 -13 -6 0 -2 -10 10 -22 11 -13 40 -52 63
-88 24 -35 54 -70 68 -77 29 -15 370 -19 370 -5 0 5 -21 34 -47 64 -27 30 -68
78 -92 107 -32 37 -47 48 -53 39 -4 -7 -8 -8 -8 -3 0 6 -58 10 -155 10 -120 0
-154 -3 -150 -12z"/>
<path d="M6038 1622 l-28 -3 0 -140 0 -139 25 0 c14 -1 76 -1 138 -1 l112 -1
3 133 c1 77 -1 136 -7 142 -9 9 -184 16 -243 9z"/>
<path d="M6039 1192 c-26 -3 -26 -4 -32 -109 -3 -59 -4 -110 -1 -115 3 -4 266
-8 585 -8 l579 0 0 103 c0 56 -5 109 -10 117 -8 13 -81 15 -552 15 -299 0
-555 -1 -569 -3z"/>
<path d="M4497 2433 c-9 -8 -9 -86 -1 -136 6 -34 8 -36 23 -23 15 13 24 8 89
-58 l72 -73 0 -56 c0 -32 -3 -57 -8 -57 -4 0 -39 32 -77 70 -72 72 -88 81 -99
54 -3 -9 -6 -134 -6 -278 0 -175 -4 -266 -11 -273 -6 -6 -9 -21 -7 -34 2 -18
8 -23 23 -21 11 2 23 10 28 17 5 10 24 -4 68 -48 34 -34 67 -71 75 -82 13 -19
20 -95 8 -95 -3 0 -35 29 -71 65 -36 36 -69 65 -74 65 -20 0 -31 -90 -36 -292
-4 -143 -10 -223 -17 -234 -18 -23 -342 -23 -365 1 -13 13 -17 52 -19 241 -2
135 -7 222 -13 219 -12 -8 -12 -437 1 -470 6 -15 74 -91 153 -170 177 -177
179 -178 375 -173 123 3 143 5 162 23 44 40 45 45 50 443 5 377 5 384 26 401
22 17 22 18 3 42 -11 13 -25 33 -31 44 -10 17 -9 18 3 8 10 -8 20 -9 29 -2 12
7 3 20 -47 66 -73 69 -113 122 -113 151 0 20 14 41 124 182 123 159 156 206
156 228 0 15 29 51 88 110 48 48 95 102 105 120 l18 32 -339 0 c-186 0 -342
-3 -345 -7z m386 -344 c-10 -16 -29 -40 -42 -52 l-24 -22 7 30 c10 41 35 66
74 74 2 1 -5 -13 -15 -30z"/>
<path d="M2331 2148 c13 -26 273 -370 326 -432 29 -35 33 -46 33 -97 0 -49 3
-60 22 -70 21 -11 21 -11 13 47 -4 33 -7 66 -8 74 -1 23 -362 495 -381 498
-16 3 -16 1 -5 -20z"/>
<path d="M4070 1865 c0 -287 1 -305 19 -314 33 -18 42 16 16 65 -12 24 -15 78
-15 292 0 168 -4 262 -10 262 -6 0 -10 -108 -10 -305z"/>
<path d="M1059 1625 c-3 -2 -75 -5 -161 -5 l-156 -2 -37 -44 c-72 -86 -145
-189 -145 -206 0 -9 5 -20 11 -23 5 -4 75 -7 155 -8 l145 -1 29 30 c55 55 188
238 183 251 -5 13 -16 17 -24 8z"/>
<path d="M2770 1480 l0 -145 135 1 c75 1 139 4 143 8 10 10 15 178 7 231 l-6
44 -140 3 -139 3 0 -145z"/>
<path d="M4870 1615 c1 -11 21 -39 116 -161 89 -114 98 -121 164 -118 30 1
105 2 167 3 134 1 133 -9 18 140 -117 153 -93 141 -293 144 -110 1 -172 -2
-172 -8z"/>
<path d="M4154 1607 c-2 -7 -3 -69 -2 -138 l3 -124 137 -5 138 -5 4 25 c6 35
6 221 0 243 -5 15 -20 17 -140 17 -102 0 -136 -3 -140 -13z"/>
<path d="M4900 1440 c0 -5 5 -10 11 -10 5 0 7 5 4 10 -3 6 -8 10 -11 10 -2 0
-4 -4 -4 -10z"/>
<path d="M730 1193 c-107 -3 -157 -7 -162 -16 -4 -6 -8 -58 -8 -115 l0 -102
558 2 557 3 -3 110 c-1 60 -5 111 -8 115 -6 6 -692 8 -934 3z"/>
<path d="M2767 1095 c-4 -52 -4 -102 -1 -110 5 -13 28 -15 148 -13 l141 3 3
35 c2 19 1 68 -3 108 l-7 72 -137 0 -138 0 -6 -95z"/>
<path d="M4155 1158 c-3 -18 -5 -69 -3 -113 l3 -80 120 -3 c167 -4 165 -5 165
66 0 31 -3 81 -6 110 l-7 52 -133 0 -133 0 -6 -32z"/>
<path d="M5206 1178 c36 -63 140 -198 160 -207 28 -12 350 -16 357 -3 6 8
-119 165 -158 200 -25 21 -34 22 -196 22 -133 0 -169 -3 -163 -12z"/>
</g>
</svg>
